<?xml version="1.0" encoding="UTF-8"?>
<svg fill="#FFFFFF" width="100pt" height="100pt" version="1.1" viewBox="0 0 100 100" xmlns="http://www.w3.org/2000/svg">
 <path d="m74.711 49.578v18.422c0 0.69141-0.5625 1.25-1.25 1.25-0.69141 0-1.25-0.55859-1.25-1.25v-13.75l-8.2812 14.34c-0.22266 0.38672-0.63281 0.62891-1.0781 0.62891h-5.8516c-0.69141 0-1.25-0.55859-1.25-1.25 0-0.6875 0.55859-1.25 1.25-1.25h5.1406l9.8594-17.141-9.8789-17.137h-5.1211c-0.69141 0-1.25-0.5625-1.25-1.25 0-0.69141 0.55859-1.25 1.25-1.25h15.91c0.69141 0 1.25 0.55859 1.25 1.25 0 0.6875-0.55859 1.25-1.25 1.25h-7.9102l9.5391 16.559v0.089844 0.10156c0.078126 0.11719 0.13672 0.25 0.17188 0.38672zm-27.242 17.133h-5.1289l-9.8984-17.133 9.8906-17.129h5.1406-0.003906c0.69141 0 1.25-0.55859 1.25-1.25 0-0.69141-0.55859-1.25-1.25-1.25h-5.8594c-0.44531 0.003906-0.85938 0.24219-1.0781 0.62891l-8.2812 14.332v-13.719c0-0.69141-0.55859-1.25-1.25-1.25s-1.25 0.55859-1.25 1.25v18.387c0.003906 0.14844 0.035156 0.29688 0.089844 0.43359v0.10156 0.089844l9.5312 16.512-7.582-0.003906c-0.6875 0-1.25 0.55859-1.25 1.25 0 0.6875 0.5625 1.25 1.25 1.25h15.68c0.69141 0 1.25-0.5625 1.25-1.25 0-0.69141-0.55859-1.25-1.25-1.25zm4.5781 0h0.003906c-0.50391 0-0.95703 0.30078-1.1523 0.76172-0.19531 0.46094-0.09375 0.99609 0.25391 1.3555 0.35156 0.36328 0.87891 0.48047 1.3477 0.29688 0.46875-0.17969 0.78516-0.625 0.80078-1.125 0.011719-0.33984-0.11719-0.66797-0.35156-0.91016-0.23828-0.24219-0.5625-0.37891-0.89844-0.37891zm0.17969-34.262h0.003907c0.50781 0.007812 0.96875-0.28906 1.168-0.75391 0.19922-0.46484 0.10156-1.0078-0.25391-1.3672-0.35547-0.36328-0.89062-0.47656-1.3594-0.28906-0.47266 0.19141-0.78125 0.64453-0.78516 1.1523-0.003906 0.68359 0.54297 1.2461 1.2305 1.2578zm-0.17969 26.711h0.003906c5.2891-0.003906 9.5742-4.293 9.5781-9.582 0-0.6875-0.55859-1.25-1.25-1.25-0.6875 0-1.25 0.5625-1.25 1.25-0.003906 3.9102-3.1719 7.0781-7.0781 7.082-0.69141 0-1.25 0.55859-1.25 1.25s0.55859 1.25 1.25 1.25zm1.2539-17.91c0-0.33203-0.13281-0.64844-0.36719-0.88281-0.23438-0.23438-0.55078-0.36719-0.88281-0.36719-5.2891 0.003906-9.5742 4.293-9.582 9.5781 0 0.69141 0.5625 1.25 1.25 1.25 0.69141 0 1.25-0.55859 1.25-1.25 0.007812-3.9062 3.1719-7.0742 7.082-7.0781 0.33203 0 0.64844-0.13281 0.88281-0.36719 0.23438-0.23437 0.36719-0.55078 0.36719-0.88281z"/>
</svg>
