<?xml version="1.0" encoding="UTF-8"?>
<svg fill="#5791ba" width="100pt" height="100pt" version="1.1" viewBox="0 0 100 100" xmlns="http://www.w3.org/2000/svg">
 <g>
  <path d="m79.48 20.52c-7.918-7.8125-18.336-12.188-29.48-12.188s-21.562 4.375-29.48 12.188c-7.8125 7.918-12.188 18.336-12.188 29.48s4.375 21.562 12.188 29.48c7.918 7.8125 18.336 12.188 29.48 12.188s21.562-4.375 29.48-12.188c7.8125-7.918 12.188-18.336 12.188-29.48s-4.375-21.562-12.188-29.48zm-29.48 65.938c-20.105 0-36.457-16.355-36.457-36.457 0-20.105 16.355-36.457 36.457-36.457 20.105 0 36.457 16.355 36.457 36.457 0 20.105-16.352 36.457-36.457 36.457z"/>
  <path d="m48.02 76.25c-1.1445 0.41797-2.5 0.41797-4.0625 0.20703-1.457-0.20703-3.2305-0.83203-5.5195-1.875-1.25-0.625-2.3945-1.1445-3.332-1.668-2.082-1.25-4.0625-2.918-5-4.793-0.83203-1.668-2.1875-1.1445-2.3945-1.043-0.625 0.3125-1.043 0.9375-1.043 1.668 0 1.043 0.83203 2.3945 2.082 3.75 1.1445 1.1445 2.707 2.293 4.582 3.4375 1.1445 0.73047 2.3945 1.3555 3.6445 1.9805 1.7695 0.83203 4.0625 1.668 6.3555 1.9805 1.043 0.20703 1.9805 0.3125 2.8125 0.3125 2.1875 0 3.75-0.51953 3.957-1.1445 0.41797-1.043 0.20703-1.668 0-2.082-0.30859-0.625-0.93359-1.1484-2.082-0.73047z"/>
  <path d="m58.125 23.75c-3.0195 0-5.9375 1.25-8.0195 3.4375-2.082-2.293-5.1055-3.6445-8.2305-3.6445-6.1445 0-11.145 5-11.145 11.145s5 11.145 11.145 11.145c3.0195 0 5.9375-1.25 8.0195-3.4375 2.082 2.293 5.1055 3.6445 8.2305 3.6445 6.1445 0 11.145-5 11.145-11.145s-5-11.145-11.145-11.145zm0 19.48c-2.918 0-5.5195-1.457-7.082-3.8555l-1.043-1.7695-1.1445 1.7695c-1.5625 2.293-4.168 3.6445-6.875 3.6445-4.582 0-8.332-3.75-8.332-8.332s3.75-8.332 8.332-8.332c0.625 0 1.25 0.10547 1.875 0.20703-2.3984 0.20703-4.2734 2.1875-4.2734 4.6875 0 2.6055 2.082 4.6875 4.6875 4.6875s4.6875-2.082 4.6875-4.6875c0-0.625-0.10547-1.1445-0.3125-1.7695 0.20703 0.20703 0.3125 0.51953 0.51953 0.73047l1.1445 1.7695 1.1445-1.668c1.5625-2.293 4.168-3.6445 6.9805-3.6445h0.83203c-2.1875 0.3125-3.957 2.293-3.957 4.582 0 2.6055 2.082 4.6875 4.6875 4.6875 2.6055 0 4.6875-2.082 4.6875-4.6875 0-1.043-0.3125-1.9805-0.83203-2.707 1.875 1.5625 3.0195 3.8555 3.0195 6.457-0.30859 4.4805-4.1641 8.2305-8.7461 8.2305z"/>
 </g>
</svg>
