<?xml version="1.0" encoding="UTF-8"?>
<svg fill="#FFFFFF" width="100pt" height="100pt" version="1.1" viewBox="0 0 100 100" xmlns="http://www.w3.org/2000/svg">
 <path d="m20.602 69.898v1.5c0 0.39844-0.19922 0.69922-0.69922 0.69922h-1.6016c-0.5 0-0.69922-0.30078-0.69922-0.69922v-1.1016c0-0.80078 0-0.80078-0.80078-1-1-0.19922-2-0.39844-2.8984-0.80078-0.69922-0.30078-0.80078-0.5-0.60156-1.3008 0.19922-0.60156 0.30078-1.1016 0.5-1.6992 0.19922-0.60156 0.39844-0.69922 1-0.39844 1 0.5 2.1016 0.80078 3.1992 1 0.69922 0.10156 1.3984 0 2.1016-0.30078 1.1992-0.5 1.3984-2 0.39844-2.8984-0.39844-0.30078-0.80078-0.5-1.1992-0.69922-1.1016-0.5-2.1992-0.80078-3.3008-1.5-1.6992-1-2.6992-2.3984-2.6016-4.3984 0.10156-2.3008 1.3984-3.6992 3.6016-4.5 0.89844-0.30078 0.89844-0.30078 0.89844-1.1992v-0.89844c0-0.69922 0.10156-0.80078 0.80078-0.80078h0.60156c1.5 0 1.5 0 1.5 1.5 0 1 0 1 1 1.1992 0.80078 0.10156 1.5 0.39844 2.3008 0.69922 0.39844 0.19922 0.60156 0.5 0.39844 0.89844-0.19922 0.60156-0.39844 1.3008-0.60156 1.8984-0.19922 0.60156-0.39844 0.69922-0.89844 0.39844-1.1016-0.5-2.3008-0.80078-3.6016-0.69922-0.30078 0-0.69922 0.10156-1 0.19922-1.1016 0.5-1.3008 1.6992-0.30078 2.3984 0.5 0.39844 1 0.60156 1.6016 0.89844 1 0.39844 1.8984 0.80078 2.8008 1.3008 2.8984 1.6016 3.6992 5.3008 1.6016 7.6992-0.69922 0.89844-1.6992 1.5-2.8008 1.8008-0.5 0.10547-0.69922 0.30469-0.69922 0.80469zm10.699-17.098h31c0.39844 0 0.69922-0.30078 0.69922-0.69922v-2.3984c0-0.39844-0.30078-0.69922-0.69922-0.69922h-31c-0.39844 0-0.69922 0.30078-0.69922 0.69922v2.3984c0 0.39844 0.29688 0.69922 0.69922 0.69922zm-0.69922 5.6992c0 0.39844 0.30078 0.69922 0.69922 0.69922h17.801c0.39844 0 0.69922-0.30078 0.69922-0.69922v-2.3984c0-0.39844-0.30078-0.69922-0.69922-0.69922l-17.801-0.003906c-0.39844 0-0.69922 0.30078-0.69922 0.69922zm-22.801 23.898h62.898c3.3008 0 6-2.6992 6-6v-17.797c-1.8008 2-3.6992 4.1016-5.6992 6v11.699c0 0.19922-0.19922 0.39844-0.39844 0.39844h-62.801c-0.19922 0-0.39844-0.19922-0.39844-0.39844l-0.003906-32.402h58c2.1016-3.3008 4.3984-6.6992 6.8984-10.301 0-0.10156 0.10156-0.10156 0.10156-0.19922l0.60156-0.80078c0.19922-0.19922 0.30078-0.39844 0.39844-0.60156l0.10156-0.19922c-0.89844-0.5-1.8008-0.69922-2.8984-0.69922l-62.801 0.003906c-3.3008 0-6 2.6992-6 6v39.102c-0.10156 3.4961 2.5977 6.1953 6 6.1953zm58.5-30.598c-2 3.5-4 7-5.5 10.801-0.10156 0.19922-0.19922 0.5-0.19922 0.69922-0.10156 0-0.30078 0.10156-0.39844 0.10156-0.19922 0.10156-0.5 0.19922-0.69922 0.30078-0.10156 0.10156-0.30078 0.10156-0.39844 0.19922l-0.30469 0.097656c-0.69922 0.30078-1.3008 0.5-2 0.60156h-0.19922c-0.10156 0-0.19922 0-0.19922-0.10156-0.19922-0.30078-0.5-0.60156-0.89844-0.80078-0.69922-0.39844-1.5-0.5-2.3984-0.10156-1 0.39844-2.1016 0.89844-3.3008 1.6992-0.5 0.30078-0.89844 0.60156-1.3984 0.89844-0.30078 0.19922-0.5 0.30078-0.80078 0.5v-0.19922c0.10156-0.5 0.19922-0.89844 0.19922-1.3984s-0.10156-0.89844-0.5-1.3008c-0.30078-0.30078-0.80078-0.5-1.3008-0.5-0.19922 0-0.69922 0-1.1016 0.30078l-0.19922 0.10156c-0.39844 0.30078-0.89844 0.5-1.3984 0.89844-0.80078 0.60156-1.6016 1.3008-2.3008 2-0.60156 0.5-1.1016 0.89844-1.6992 1.3984 0.19922-0.5 0.30078-0.89844 0.5-1.3984 0.19922-0.60156 0.5-1.1992 0.69922-1.8984 0.19922-0.39844 0.30078-0.89844 0.30078-1.3984 0.10156-0.5-0.10156-1-0.39844-1.3984-0.39844-0.5-1.1016-0.69922-1.8008-0.5-0.39844 0.10156-0.89844 0.39844-1.1992 0.69922l-0.10156 0.10156c-0.60156 0.60156-1.1992 1.1992-1.8008 1.8984-1.6992 2.1016-3.3984 4.5-5.1992 7.5-0.39844 0.60156-0.80078 1.3008-1 2.1016v0.30078c-0.10156 0.60156 0.39844 1.1992 1 1.3984h0.30078c0.5 0 1-0.30078 1.1016-0.80078v-0.10156l0.10156-0.30078c0.10156-0.19922 0.19922-0.39844 0.30078-0.60156 0.19922-0.30078 0.30078-0.60156 0.60156-0.89844l0.60156-0.80078c0.80078-1 1.6016-2.1016 2.3984-3.1016-0.10156 0.19922-0.10156 0.39844-0.19922 0.60156-0.10156 0.39844-0.30078 1-0.10156 1.6016 0.30078 1.1016 1.3008 1.6992 2.3008 1.5 0.30078-0.10156 0.69922-0.19922 1-0.39844 0.69922-0.39844 1.3008-0.89844 2-1.3984 1.1016-0.89844 2.1992-1.6992 3.3984-2.6016v0.30078c0 0.60156 0.10156 1.1016 0.5 1.3984 0.5 0.5 1.1992 0.69922 2 0.5 0.5-0.10156 1-0.39844 1.5-0.60156 0.60156-0.30078 1.1016-0.60156 1.6992-0.89844 0.69922-0.39844 1.3984-0.80078 2.1992-1.1992 0.60156-0.30078 1.1992-0.60156 1.8984-0.89844l0.39844-0.19922c0.80078 0.80078 1.8008 1.1016 3 0.89844 1.5-0.30078 2.8008-0.69922 4.1016-1.1992 0 0 0.10156 0 0.10156-0.10156 0.30078-0.10156 0.60156-0.30078 0.89844-0.5 1.5-0.89844 2.8008-2.1016 4.1016-3.3008 6.1992-6 11.602-12.602 16.801-19.398 0.5-0.60156 0.89844-1.1992 1.3984-1.8008 0.10156-0.10156 0.10156-0.19922 0.19922-0.30078l2.1992-3 0.30078-0.30078c1.8008-2.5 3.6016-5 5.3984-7.6016l0.10156-0.10156 2 1.3984-9.5 13c-0.5 0.60156-0.30078 1.5 0.30078 2 0.30078 0.19922 0.69922 0.30078 1.1016 0.30078 0.39844-0.10156 0.69922-0.30078 0.89844-0.60156l10.293-14.195c0.5-0.60156 0.30078-1.5-0.30078-2l-3.3008-2.3984 0.89844-1.3984c0.39844-0.69922 0.80078-1.5 1.1016-2.3008 0.10156-0.30078 0.19922-0.5 0.30078-0.80078 0.5-1.8008 0-3.1016-1.8008-4.3008-1.5-1.1016-2.6992-1.1016-4.3008 0-1 0.69922-1.8984 1.6016-2.6992 2.6016-3 3.3984-5.6016 7.1992-8.3008 10.801-0.10156 0.10156-0.10156 0.10156-0.10156 0.19922l-2.1953 2.8984c-0.10156 0.10156-0.19922 0.30078-0.30078 0.39844-0.19922 0.19922-0.30078 0.39844-0.5 0.69922l-0.10156 0.19922c-3.5977 5.0039-7 10.203-10.098 15.504z"/>
</svg>
