<?xml version="1.0" encoding="UTF-8"?>
<svg fill="#FFFFFF" width="100pt" height="100pt" version="1.1" viewBox="0 0 100 100" xmlns="http://www.w3.org/2000/svg">
 <path d="m50 2.5c-26.199 0-47.5 21.301-47.5 47.5s21.301 47.5 47.5 47.5 47.5-21.301 47.5-47.5-21.301-47.5-47.5-47.5zm9.1992 65.801l-0.30078 0.30078c-1.6992 1.5-3.8008 2.5-6.1016 3v6.5h-6.8008v-6.6992c-1.8984-0.5-3.6016-1.3984-5.1016-2.6016-2.3008-1.8984-3.6992-4.5-4.1016-7.3008l7-1c0.10156 1.1016 0.69922 2.1016 1.6992 2.8984 2.5 2 6.5 2 8.8008-0.10156 1.3984-1.3008 2.1016-3.1016 2-4.8984-0.10156-1.6992-0.89844-3.1992-2.3008-4.3008-1.6992-1.1992-3.3008-1.6016-5.1992-2-2.5-0.60156-5.3984-1.3008-8-3.8984-2.5-2.6016-3.8008-5.8008-3.6992-8.8984 0.10156-2.8984 1.3984-5.6016 3.6992-7.6992l0.10156-0.10156 0.10156-0.10156c1.3984-1.1992 3.1992-2 5-2.6016v-6.8008h6.8008v6.6992c2.1992 0.5 4.1016 1.6016 5.8008 3 1.6992 1.5 2.8984 3.3984 3.5 5.5l-7.1016 1.1016c-0.19922-0.5-0.60156-0.89844-1-1.3008-2.3008-2-6.1992-2-8.5-0.10156-0.69922 0.69922-1.3984 1.6016-1.3984 2.8008-0.10156 1.1992 0.60156 2.5 1.6992 3.6992 1.1016 1.1992 2.3008 1.5 4.6016 2 2.1992 0.5 5 1.1016 7.8008 3.1992 3 2.1992 4.8984 5.6992 5.1016 9.5 0.097657 3.707-1.3008 7.4062-4.1016 10.207z"/>
</svg>
