<?xml version="1.0" encoding="UTF-8"?>
<svg fill="#FFFFFF" width="100pt" height="100pt" version="1.1" viewBox="0 0 100 100" xmlns="http://www.w3.org/2000/svg">
 <path d="m98.547 60.871c-0.92578-1.8398-2.3008-3.9883-3.9219-6.0703 1.6211-2.082 2.9961-4.2305 3.9219-6.0703 0.58203-1.1641 1.0117-2.1797 1.2734-2.9219 0.27344-0.73828 0.38672-1.1953 0.38672-1.1953s-0.4375 0.17578-1.1289 0.55469c-0.69141 0.37109-1.6367 0.94531-2.6992 1.6953-1.5352 1.082-3.2734 2.5781-4.9492 4.2812-1.6758-1.7109-3.4102-3.2031-4.9531-4.2852-1.0625-0.74609-2.0078-1.3203-2.6992-1.6914-0.69141-0.375-1.1289-0.55469-1.1289-0.55469s0.10937 0.46094 0.37891 1.1992c0.26953 0.74219 0.69531 1.7617 1.2734 2.9258 0.88672 1.7695 2.1914 3.8203 3.7305 5.8203-1.6523-0.11328-3.875-0.25781-6.6055-0.41406-1.5938-0.089843-3.3516-0.19141-5.2695-0.29688-1.2734-1.1445-2.6484-2.3867-4.1172-3.7109-1.6445-1.4844-3.3984-3.0625-5.25-4.7305-0.93359-0.82422-1.8828-1.6719-2.8594-2.5391l-0.73438-0.65234c-0.45312-0.42969-1.4414-0.87891-2.3945-0.6875-0.46484 0.082031-0.86328 0.27344-1.1836 0.49219-0.37891 0.26172-0.55859 0.48047-0.66016 0.57031l-0.72266 0.71484c-1.9414 1.918-3.9648 3.9141-6.0625 5.9805l-2.4688 2.4688c-0.96875-2.7852-1.9609-5.6367-2.9766-8.5508-0.26953-0.77344-0.53906-1.5547-0.8125-2.3398l-0.42187-1.1758c-0.17969-0.48438-0.53516-1.3789-1.3125-2.125-0.42188-0.38672-0.94922-0.78125-1.7109-0.99609-0.73047-0.21875-1.6328-0.19922-2.3398 0.0625-0.69141 0.24609-1.2656 0.66016-1.625 1.043-0.38281 0.38672-0.64453 0.76953-0.91016 1.2773l-0.15234 0.31641-0.17969 0.42578-0.24609 0.58984-0.48828 1.1758c-0.69531 1.6641-1.3984 3.3477-2.1055 5.0391-0.10547-0.44922-0.21484-0.89844-0.32031-1.3477l-0.64453-2.6836c-0.21094-0.75391-0.50391-1.6016-1.3125-2.5273-0.40234-0.44531-0.98828-0.92578-1.7852-1.2383-0.81641-0.31641-1.8438-0.37109-2.7305-0.10156-0.84766 0.26172-1.5156 0.74609-1.9414 1.1953-0.43359 0.44531-0.73047 0.89844-1.0195 1.4766l-0.16016 0.35547-0.1875 0.47656-0.23437 0.63672-0.94922 2.5391c-1.2695 3.3906-2.5391 6.8008-3.8164 10.207-0.81641 2.2656-1.6367 4.5234-2.457 6.7812-0.16016 0.015625-0.32031 0.027344-0.48047 0.042969 0.058594-2.8945 0.10938-5.7578 0.16406-8.5742 0.15234-6.8164 0.17188-13.41 0.22266-19.66 0.011719-1.5625 0.019531-3.1055 0.035157-4.625 0.007812-0.75781 0.011718-1.5117 0.015624-2.2617 0-0.30859 0.015626-0.91016-0.066406-1.4414-0.066406-0.54297-0.21094-1.1055-0.46875-1.6836-0.27734-0.57422-0.61328-1.168-1.3047-1.707-0.63672-0.53125-1.832-0.94141-2.9141-0.60938-1.0664 0.31641-1.6641 1.0234-2.0195 1.582-0.17188 0.28125-0.36328 0.71094-0.43359 0.91016l-0.20312 0.64062c-0.34375 1.3789-0.67578 2.7305-1.0039 4.0547-2.6289 10.594-4.6758 19.465-6.0703 25.684-0.71875 3.1016-1.2109 5.5625-1.5781 7.2305-0.32422 1.5352-0.51562 2.4023-0.54297 2.5352h-0.007813 0.007813c-0.003906 0.011719-0.007813 0.023438-0.007813 0.023438s0.007813-0.015625 0.007813-0.023438c0.046875 0.007813 1.4609 0.28906 3.9141 0.65234 1.5898 0.23438 3.6211 0.51562 5.9883 0.78516-0.058594 1.1211-0.11328 2.2422-0.17188 3.3711l-0.10547 2.6719-0.007813 0.49219 0.003907 0.33594c0.011718 0.27734 0.058593 0.88281 0.14453 1.2422 0.14844 0.76953 0.4375 1.6133 1.0625 2.4844 0.30859 0.42969 0.73438 0.89062 1.3594 1.2812 0.59766 0.39453 1.4922 0.69922 2.4375 0.66797 0.94531-0.027344 1.8594-0.42969 2.4102-0.86719 0.33203-0.23828 0.52344-0.45312 0.73438-0.68359 0.23047-0.24609 0.35938-0.45312 0.49609-0.66797 0.30469-0.45313 0.43359-0.82813 0.59766-1.207l0.23438-0.63281 0.47656-1.2656c0.63281-1.6875 1.2656-3.3828 1.9023-5.0742 0.13281-0.35156 0.26562-0.70703 0.39453-1.0586 7.1875 0.48828 15.461 0.76953 23.738 0.77734 11.402-0.003906 22.812-0.52344 31.363-1.4062 4.2773-0.38672 7.8398-0.87109 10.336-1.2383 2.4961-0.37109 3.9219-0.66016 3.9219-0.66016s-1.4258-0.28906-3.9219-0.65625c-0.625-0.09375-1.3203-0.19141-2.0742-0.29687 0.32422-0.21094 0.66406-0.4375 1.0195-0.6875 1.5391-1.082 3.2773-2.5781 4.9531-4.2852 1.6758 1.707 3.4102 3.1992 4.9492 4.2812 1.0625 0.75 2.0078 1.3203 2.6992 1.6953 0.69141 0.37891 1.1289 0.55469 1.1289 0.55469s-0.10938-0.45703-0.38672-1.1953c-0.25391-0.74219-0.68359-1.7617-1.2656-2.9219zm-37.562-15.852c-0.046875-0.023437-0.074219-0.046875-0.0625-0.046875zm-12.516 7.9648c0.011719-0.015625 0.03125-0.03125 0.054688-0.046875l-0.11719 0.12109c-0.015625 0 0.023438-0.03125 0.0625-0.074219zm-8.2812-11.434c-0.039062-0.058593-0.035156-0.070312 0 0zm-4.6484 9.6367l0.003907 0.003906c0.015625 0.011719 0.035156 0.13281-0.003907-0.003906zm-3.0469-0.070312c-0.023438 0.046874-0.027344 0.046874 0 0zm-1.9375-7.1953c-0.007813 0.015625-0.011719 0.019531-0.019532 0.03125 0.011719-0.019531 0.019532-0.03125 0.019532-0.03125zm-3.3086 0.14062c-0.007813-0.015625-0.007813-0.015625 0 0zm-13.711-18.477c0.019532-0.019532 0.007813 0.027343-0.070312 0.097656l0.019531-0.050782c0.070313-0.13281 0.046875-0.015624 0.050781-0.046874zm-13.316 38.797c0.050781-0.13672 0.35156-0.96875 0.88672-2.4375 0.57031-1.6094 1.4531-3.957 2.4883-6.9688 2.1094-6.0156 5.0742-14.621 8.4492-25.004 0.019531-0.050781 0.03125-0.10156 0.050781-0.15234-0.082031 1.3477-0.16406 2.7031-0.24609 4.0859-0.37109 6.2383-0.80078 12.82-1.1094 19.633-0.15625 3.0859-0.3125 6.2227-0.46875 9.3867-2.4297 0.27734-4.5156 0.5625-6.1367 0.80469-2.4492 0.35938-3.8633 0.64062-3.9141 0.65234zm84.086-3.5195c-0.42969 0.85547-0.76953 1.6328-1.0273 2.2773-1.8008-0.22656-3.8398-0.45703-6.0781-0.66016-8.5547-0.88281-19.961-1.4023-31.363-1.4062-7.543 0.007812-15.082 0.24219-21.801 0.65234 0.49219-1.3203 0.98828-2.6406 1.4805-3.9648 1.0195-2.8125 2.0391-5.6211 3.0586-8.4258 0.20703 0.83594 0.41406 1.6719 0.62109 2.5039l0.16797 0.64453 0.13672 0.46484c0.007812 0.039062 0.12891 0.38281 0.22266 0.60156 0.41016 0.87891 0.85547 1.7539 2.2031 2.5586 0.63281 0.375 1.5977 0.60938 2.4805 0.50391 0.92969-0.09375 1.6602-0.5 2.1992-0.92188 1.0195-0.83203 1.4297-1.832 1.6445-2.3789 1.0977-2.8828 2.1758-5.7266 3.2422-8.5391 0.046874 0.11328 0.09375 0.23047 0.14062 0.34375 1.2383 3.0391 2.4531 6.0117 3.6367 8.9062 0.17188 0.37891 0.21875 0.62109 0.60938 1.3711 0.38672 0.64453 0.89453 1.3633 2.0078 1.8555 0.54688 0.23047 1.2461 0.33203 1.8945 0.21484 0.64453-0.10938 1.1914-0.40234 1.5703-0.70312 0.20313-0.14844 0.36328-0.32422 0.49219-0.45703l0.19141-0.21484 0.37891-0.42578c1.0078-1.1367 2.0039-2.2539 2.9805-3.3555 1.9375-2.2148 3.8086-4.3555 5.6016-6.4102l0.45703-0.52344 0.25391 0.19141c1.043 0.78516 2.0625 1.5547 3.0547 2.3047 1.9961 1.4844 3.8906 2.8945 5.6719 4.2188 0.89062 0.66016 1.7539 1.3008 2.5859 1.9219 0.41406 0.30859 0.82422 0.61328 1.2266 0.91016l0.65625 0.47266c0.32422 0.23438 0.85156 0.39844 1.2578 0.36328 1.9219-0.10937 3.6797-0.21094 5.2695-0.30078 2.7305-0.16016 4.9492-0.30078 6.6055-0.41406-1.543 2-2.8477 4.0547-3.7305 5.8203z"/>
</svg>
