<?xml version="1.0" encoding="UTF-8"?>
<svg fill="#896788" width="100pt" height="100pt" version="1.1" viewBox="0 0 100 100" xmlns="http://www.w3.org/2000/svg">
 <path d="m8.3242 64.707c-1.0547 1.9375-1.6133 4.1016-1.6133 6.3398 0 7.3164 5.9492 13.266 13.266 13.266 6.9883 0 12.715-5.4336 13.219-12.293 0.45313-0.12891 0.89453-0.29297 1.3164-0.49609 0.03125-0.015626 0.0625-0.03125 0.089843-0.046876l6.9219-3.9648 12.91-6.6797 0.10547-0.058593 6.4453-4.0156c1.0156-0.63672 1.9453-1.3164 2.8164-2.0742l5.6367-5.3516 0.53906-0.40625c0.92188 0.60938 2.0156 0.97266 3.1953 0.97266 0.31641 0 0.63281-0.027344 0.94531-0.078126l15.02-2.4648c1.5312-0.25 2.8711-1.082 3.7773-2.3438s1.2656-2.7969 1.0156-4.3281l-3.3086-20.129c-0.46484-2.8203-2.8711-4.8672-5.7266-4.8672-0.31641 0-0.63281 0.027344-0.94531 0.078125l-15.02 2.4648c-1.5312 0.25-2.8711 1.0859-3.7773 2.3438-0.023438 0.035156-0.042969 0.070312-0.066406 0.10547l-39.469 5.7891c-0.6875 0.10156-1.3438 0.41016-1.8359 0.85547l-17.086 14.863c-1.9219 1.7656-2.8945 4.2656-2.6602 6.8984l1.1602 10.379c0.17969 1.5078 0.84766 2.9141 1.8789 3.957zm11.652 16.605c-5.6602 0-10.266-4.6055-10.266-10.266 0-2.0586 0.60156-4.0391 1.7383-5.7266 1.3047-1.9336 3.2344-3.3789 5.4414-4.0742 1.543-0.49219 3.2266-0.58203 4.8516-0.30469-0.35547 0.24219-0.70703 0.49609-1.0391 0.77734l-1.3867 0.92188c-0.82031 0.55469-1.5312 1.2188-2.1289 1.9961l-0.11719 0.16016c-1.0859 1.4141-1.7305 3.1133-1.8633 4.9297l-0.078125 1.2188c-0.019531 0.28125 0.042969 0.55859 0.17578 0.80859l0.30469 0.57031c0.26562 0.47656 0.60938 0.87109 0.97656 1.1328 0.019531 0.015625 0.050781 0.027344 0.070312 0.042969 0.0625 0.046875 0.12891 0.089844 0.19922 0.12109 0.69531 0.43359 1.5898 0.64453 2.1992 0.64453h0.82422c0.23047 0 0.58594-0.019531 0.90234-0.10938l1.3984-0.33594c0.27344-0.070312 0.53906-0.16797 0.79297-0.29297l1.9375-0.97266c0.5625-0.28125 1.1953-0.43359 1.8359-0.44141l1.6172-0.027343c0.046875 0.003906 0.097657 0.007812 0.14453 0.007812l1.2891 0.15625c0.11328 0.019531 0.24219 0.019531 0.35938 0.03125-0.60938 5.082-4.9375 9.0312-10.18 9.0312zm-2.9258-23.453c-0.035156-0.070313-0.046875-0.13672-0.046875-0.14844l0.17578-4.9414c0.003906-0.078125 0.050781-0.14844 0.10547-0.18359l6.207-3.957c0.14844-0.09375 0.32031-0.15625 0.48828-0.18359l4.3086-0.64062c0.76953-0.11719 1.5508 0.11719 2.1367 0.62891l4.5781 4.0859-2.7188 2.5977c-0.60938 0.58594-1.3164 1.1016-2.0938 1.5273l-3.1133 1.7031c-0.30859 0.16016-0.61719 0.30859-0.94531 0.44531l-0.55859 0.23438c-2.6133-1.2109-5.6172-1.5469-8.4023-0.95312zm2.6641 13.41c0.54297-0.43359 1.3633-0.75 2.3555-0.75 0.0625 0 0.11719 0.015625 0.17969 0.015625l-0.61719 0.3125c-0.050781 0.027344-0.11328 0.046875-0.16406 0.0625l-1.4375 0.34766c-0.015625 0.003907-0.070312 0.015626-0.14844 0.015626zm49.699-50.082l15.02-2.4648c0.15234-0.023437 0.30859-0.039062 0.46094-0.039062 1.3789 0 2.543 0.98828 2.7656 2.3555l3.3047 20.125c0.12109 0.73828-0.050782 1.4844-0.48828 2.0938-0.4375 0.60938-1.0859 1.0117-1.8281 1.1328l-15.02 2.4648c-1.5508 0.25-2.9805-0.80078-3.2266-2.3164l-3.3047-20.125c-0.12109-0.73828 0.050782-1.4844 0.48828-2.0938 0.4375-0.60547 1.0859-1.0078 1.8281-1.1328zm-60.719 23.238l17.07-14.855c0.074219-0.066406 0.18359-0.11719 0.28516-0.13281l38.008-5.5781c-0.003906 0.34766 0.015625 0.69531 0.074218 1.043l3.3047 20.125c0.097656 0.58594 0.29297 1.1289 0.54688 1.6367l-0.42578 0.32031c-0.046875 0.035156-0.089844 0.070313-0.13281 0.10938l-5.6445 5.3672c-0.70312 0.60937-1.5078 1.1992-2.3906 1.75l-6.3945 3.9844-12.914 6.6836-6.9297 3.9688c-0.5 0.23828-1.0391 0.39062-1.5977 0.45703-0.42578 0.046874-0.83984 0.0625-1.3281-0.019532l-1.4375-0.17578c-0.042968-0.003906-0.12109-0.007813-0.17969-0.011719-0.070313-0.007812-0.14062-0.015625-0.20703-0.011718l-1.7031 0.03125c-0.054688 0-0.10938 0.007812-0.16406 0.011718-1.1289-1.0156-2.7383-1.6055-4.4688-1.6055-1.332 0-2.5703 0.35547-3.5742 0.95703 0.21484-0.66797 0.53125-1.3047 0.96875-1.875l0.11719-0.16016c0.38281-0.5 0.85938-0.94141 1.4062-1.3086l1.4453-0.96484c0.046874-0.03125 0.09375-0.066406 0.13672-0.10156 0.79297-0.67187 1.6719-1.2148 2.6016-1.6094l2.125-0.89453c0.39062-0.16406 0.76953-0.34766 1.1875-0.5625l3.1523-1.7227c1.0078-0.55469 1.9258-1.2266 2.7266-1.9922l2.8008-2.6719c0.58594-0.55469 0.91016-1.3359 0.89844-2.1406-0.015625-0.80859-0.36719-1.5781-0.97266-2.1133l-4.6758-4.1719c-1.2695-1.1094-2.9336-1.5977-4.5703-1.3477l-4.3086 0.63672c-0.57422 0.089843-1.1406 0.29688-1.6406 0.61328l-6.207 3.957c-0.90234 0.56641-1.4648 1.543-1.5 2.6133l-0.17578 4.9453c-0.015624 0.48047 0.089844 0.96875 0.30078 1.4453-1.5977 0.75781-3.0352 1.8359-4.2227 3.1602l-0.86328-0.89062c-0.57031-0.57812-0.94141-1.3633-1.043-2.2031l-1.1602-10.332c-0.14453-1.6602 0.47656-3.2617 1.6758-4.3633z"/>
</svg>
