<?xml version="1.0" encoding="UTF-8"?>
<svg fill="#896788" width="100pt" height="100pt" version="1.1" viewBox="0 0 100 100" xmlns="http://www.w3.org/2000/svg">
 <g fill-rule="evenodd">
  <path d="m78.332 90c-3.6758 0-6.6641-2.9883-6.6641-6.668 0-0.92188 0.74609-1.6641 1.6641-1.6641 0.92188 0 1.668 0.74219 1.668 1.6641 0 1.8398 1.4961 3.3359 3.332 3.3359 1.8398 0 3.3359-1.4961 3.3359-3.3359 0-1.8359-1.4961-3.332-3.3359-3.332-3.6758 0-6.6641-2.9883-6.6641-6.668 0-3.6758 2.9883-6.6641 6.6641-6.6641 3.6797 0 6.668 2.9883 6.668 6.6641 0 0.92188-0.74609 1.668-1.668 1.668-0.91797 0-1.6641-0.74609-1.6641-1.668 0-1.8359-1.4961-3.332-3.3359-3.332-1.8359 0-3.332 1.4961-3.332 3.332 0 1.8398 1.4961 3.3359 3.332 3.3359 3.6797 0 6.668 2.9883 6.668 6.6641 0 3.6797-2.9883 6.668-6.668 6.668"/>
  <path d="m78.332 93.332c-0.91797 0-1.6641-0.74219-1.6641-1.6641v-26.668c0-0.92188 0.74609-1.668 1.6641-1.668 0.92188 0 1.668 0.74609 1.668 1.668v26.668c0 0.92188-0.74609 1.6641-1.668 1.6641"/>
  <path d="m78.332 60c-10.105 0-18.332 8.2266-18.332 18.332 0 10.109 8.2266 18.336 18.332 18.336 10.109 0 18.336-8.2266 18.336-18.336 0-10.105-8.2266-18.332-18.336-18.332m0 40c-11.945 0-21.664-9.7188-21.664-21.668 0-11.945 9.7188-21.664 21.664-21.664 11.949 0 21.668 9.7188 21.668 21.664 0 11.949-9.7188 21.668-21.668 21.668"/>
  <path d="m91.668 33.332h-90c-0.92188 0-1.668-0.74219-1.668-1.6641s0.74609-1.668 1.668-1.668h90c0.92188 0 1.6641 0.74609 1.6641 1.668s-0.74219 1.6641-1.6641 1.6641"/>
  <path d="m46.668 26.668c-0.92188 0-1.668-0.74609-1.668-1.668 0-13.785 11.215-25 25-25 0.92188 0 1.668 0.74609 1.668 1.668s-0.74609 1.6641-1.668 1.6641c-11.945 0-21.668 9.7227-21.668 21.668 0 0.92188-0.74219 1.668-1.6641 1.668"/>
  <path d="m46.668 26.668c-0.48828 0-0.97266-0.21484-1.3008-0.625-0.57813-0.72266-0.46094-1.7695 0.25781-2.3438l8.332-6.668c0.72266-0.57812 1.7695-0.45703 2.3438 0.26172 0.57812 0.71875 0.46094 1.7656-0.25781 2.3438l-8.3359 6.6641c-0.30469 0.24609-0.67188 0.36719-1.0391 0.36719"/>
  <path d="m46.668 26.668c-0.42578 0-0.85547-0.16406-1.1797-0.48828l-6.668-6.668c-0.64844-0.65234-0.64844-1.7031 0-2.3555 0.65234-0.65234 1.707-0.65234 2.3594 0l6.6641 6.6641c0.65234 0.65234 0.65234 1.707 0 2.3594-0.32422 0.32422-0.75 0.48828-1.1758 0.48828"/>
  <path d="m58.633 83.332h-56.965c-0.92188 0-1.668-0.74219-1.668-1.6641v-50c0-0.61719 0.33984-1.1797 0.88281-1.4727 0.53906-0.28906 1.1953-0.25391 1.707 0.085938l44.078 29.383 44.074-29.383c0.50781-0.33984 1.1719-0.375 1.7109-0.085938 0.54297 0.29297 0.87891 0.85547 0.87891 1.4727v31.785c0 0.92188-0.74219 1.668-1.6641 1.668s-1.668-0.74609-1.668-1.668v-28.672l-42.41 28.273c-0.55859 0.375-1.2852 0.375-1.8477 0l-42.41-28.273v45.219h55.301c0.92188 0 1.668 0.74609 1.668 1.668s-0.74609 1.6641-1.668 1.6641"/>
 </g>
</svg>
