<?xml version="1.0" encoding="UTF-8"?>
<svg fill="#896788" width="100pt" height="100pt" version="1.1" viewBox="0 0 100 100" xmlns="http://www.w3.org/2000/svg">
 <path d="m49.91 8.0469c-0.83594 0.035156-1.5625 0.58594-1.8203 1.3828l-9.418 29.195-30.668-0.0625c-0.86719 0-1.6406 0.55859-1.9062 1.3828-0.26953 0.82813 0.027344 1.7305 0.73047 2.2422l24.852 17.98-9.543 29.164c-0.26953 0.82422 0.023437 1.7305 0.72656 2.2383 0.69922 0.51172 1.6523 0.51172 2.3516 0l24.781-18.082 24.789 18.082c0.69922 0.51172 1.6523 0.51172 2.3516 0 0.70312-0.50781 0.99609-1.4141 0.72656-2.2383l-9.543-29.164 24.852-17.98c0.70312-0.51172 1-1.4141 0.73047-2.2422-0.26953-0.82422-1.0391-1.3828-1.9062-1.3789l-30.668 0.0625-9.4297-29.195v-0.003906c-0.27734-0.85547-1.0898-1.418-1.9883-1.3828z" fill-rule="evenodd"/>
</svg>
