<?xml version="1.0" encoding="UTF-8"?>
<svg fill="#896788" width="100pt" height="100pt" version="1.1" viewBox="0 0 100 100" xmlns="http://www.w3.org/2000/svg">
 <path d="m84.898 59.898c2.8008-4.8008 4.1992-10.102 4.1992-15.398 0-19-18-34.5-40-34.5-21.996 0-40.098 15.5-40.098 34.5s18 34.5 40 34.5c7.3984 0 14.602-1.6992 20.898-5.1016l16.301 3c1.5 0.30078 3-0.30078 3.8984-1.5 0.89844-1.1992 1.1016-2.8008 0.39844-4.1992zm-8.1992 1.6016l3.1016 6.1016-9.8008-1.8008c-0.89844-0.19922-1.8984 0-2.6992 0.5l-0.5 0.30078c-5.1992 2.8984-11.402 4.3984-17.801 4.3984-17.699 0-32-11.898-32-26.5s14.398-26.5 32-26.5 32 11.898 32 26.5c0 4.3984-1.3008 8.6992-3.8008 12.5-0.10156 0.19922-0.30078 0.5-0.30078 0.5-0.69922 1.1992-0.79688 2.6992-0.19922 4z"/>
</svg>
