<?xml version="1.0" encoding="UTF-8"?>
<svg fill="#896788" width="100pt" height="100pt" version="1.1" viewBox="0 0 100 100" xmlns="http://www.w3.org/2000/svg">
 <g>
  <path d="m44.199 59.5c-0.5 0-1.1016-0.19922-1.5-0.60156-0.80078-0.80078-0.80078-2.1992 0-3l24.199-24c0.80078-0.80078 2.1992-0.80078 3 0 0.80078 0.80078 0.80078 2.1992 0 3l-24.102 24c-0.59766 0.40234-1.0977 0.60156-1.5977 0.60156z"/>
  <path d="m33.102 69.801c-0.5 0-1.1016-0.19922-1.5-0.60156l-15.199-15c-0.80078-0.80078-0.89844-2.1992 0-3 0.80078-0.80078 2.1992-0.89844 3 0l15.199 15c0.80078 0.80078 0.89844 2.1992 0 3-0.40234 0.40234-1 0.60156-1.5 0.60156z"/>
  <path d="m44.801 70.699c-0.5 0-1.1016-0.19922-1.5-0.60156l-15.199-15c-0.80078-0.80078-0.89844-2.1992 0-3 0.80078-0.80078 2.1992-0.89844 3 0l13.699 13.5 35.801-35.598c0.80078-0.80078 2.1992-0.80078 3 0 0.80078 0.80078 0.80078 2.1992 0 3l-37.301 37.102c-0.40234 0.39844-0.90234 0.59766-1.5 0.59766z"/>
 </g>
</svg>
