<?xml version="1.0" encoding="UTF-8"?>
<svg fill="#896788" width="100pt" height="100pt" version="1.1" viewBox="0 0 100 100" xmlns="http://www.w3.org/2000/svg">
 <path d="m94.602 39.898c-2.8984-3.3008-7.3984-4-11-4.1992-3.3984-0.19922-8.1016-0.10156-14 0.39844 1.3984-6 3.6992-15.5 4.6016-20.199 1-5.1992-2-9.8008-7.1016-11.301-4.8984-1.3984-9.6992 0.69922-11.398 4.8984l-0.60156 1.3984c-2.6992 7-10 25.5-21.898 28.898h-0.10156c-2-2.1992-4.8008-3.5-8-3.5l-11.801 0.007812c-6 0-10.801 4.8008-10.801 10.801v36.102c0 6 4.8008 10.801 10.801 10.801h11.898c3.1992 0 6.1016-1.3984 8.1016-3.6016 5.8984 1.1992 28.898 5.6992 43.398 5.6992 5.3008 0 16.301 0 17.602-12 0.60156-5 2.3984-21.898 3-31.398 0.5-6.2031-0.30078-10.102-2.6992-12.805zm-3.3008 12.203c-0.69922 9.5-2.5 26.301-3 31.199-0.5 4.5-2.3008 6.5-11.602 6.5-12.801 0-33.398-3.8008-40.801-5.3008 0.10156-0.5 0.10156-1 0.10156-1.5v-36c0-0.60156-0.10156-1.1992-0.19922-1.6992 14.199-4.8008 21.699-23.898 24.898-32.199l0.5-1.3008c0.69922-1.8008 2.8984-1.6992 4-1.3008 0.80078 0.19922 3.3984 1.1992 2.8008 4.3008-1.1016 6-4.5 19.898-5.5 24.102-0.19922 1 0 2 0.69922 2.6992 0.60156 0.69922 1.6016 1.1016 2.6016 1 5.6992-0.60156 10.398-0.89844 14-0.89844 1.1992 0 2.3008 0 3.1992 0.10156 3.6016 0.19922 5.6992 0.89844 6.8008 2.1016 1.3984 1.3945 1.8008 4.0938 1.5 8.1953z"/>
</svg>
